<?xml version="1.0" standalone="no"?>
<!DOCTYPE svg PUBLIC "-//W3C//DTD SVG 20010904//EN"
 "http://www.w3.org/TR/2001/REC-SVG-20010904/DTD/svg10.dtd">
<svg version="1.0" xmlns="http://www.w3.org/2000/svg"
 width="235.000000pt" height="235.000000pt" viewBox="0 0 235.000000 235.000000"
 preserveAspectRatio="xMidYMid meet">
<metadata>
Created by potrace 1.11, written by Peter Selinger 2001-2013
</metadata>
<g transform="translate(0.000000,235.000000) scale(0.100000,-0.100000)"
fill="#000000" stroke="none">
<path d="M1045 1838 c-11 -6 -23 -16 -27 -22 -4 -6 -8 -295 -8 -643 0 -549 2
-634 15 -647 27 -26 56 -29 84 -8 l26 19 3 636 2 635 -26 21 c-30 24 -41 25
-69 9z"/>
<path d="M830 1820 c-20 -20 -20 -33 -20 -647 0 -346 4 -633 8 -639 9 -13 46
-34 62 -34 6 0 22 11 35 25 l25 24 0 626 c0 612 0 625 -20 645 -11 11 -31 20
-45 20 -14 0 -34 -9 -45 -20z"/>
<path d="M1255 1760 c-46 -17 -45 -5 -43 -630 l3 -593 26 -19 c28 -21 57 -18
84 8 13 13 15 94 15 608 0 552 -1 594 -17 608 -25 21 -45 26 -68 18z"/>
<path d="M627 1742 c-15 -17 -17 -73 -17 -608 0 -324 4 -594 8 -600 9 -13 46
-34 62 -34 6 0 22 11 35 25 l25 24 0 576 c0 576 -2 606 -34 627 -20 14 -63 8
-79 -10z"/>
<path d="M432 1544 l-22 -15 0 -493 c0 -378 3 -496 13 -509 20 -27 60 -31 88
-9 l24 20 3 484 c3 479 2 485 -18 511 -24 30 -55 34 -88 11z"/>
<path d="M1426 1538 c-14 -20 -16 -85 -16 -506 l0 -483 25 -24 c13 -14 29 -25
35 -25 16 0 53 21 62 34 4 6 8 232 8 502 0 463 -1 492 -18 507 -27 25 -78 22
-96 -5z"/>
<path d="M1626 1528 c-14 -20 -16 -84 -16 -501 l0 -478 26 -25 c19 -20 31 -24
52 -19 53 12 52 3 52 525 0 459 -1 488 -18 503 -27 25 -78 22 -96 -5z"/>
<path d="M227 1462 c-15 -17 -17 -62 -17 -435 0 -364 2 -418 16 -431 19 -20
64 -21 90 -2 18 14 19 32 22 413 1 219 0 408 -3 420 -12 51 -75 71 -108 35z"/>
<path d="M1834 1436 c-18 -14 -19 -30 -19 -456 l0 -442 24 -19 c28 -23 68 -19
89 8 9 13 12 120 12 453 0 411 -1 438 -18 453 -23 21 -62 22 -88 3z"/>
<path d="M2044 1292 c-31 -20 -34 -54 -34 -387 0 -333 3 -367 34 -387 20 -14
63 -8 79 10 15 17 17 58 17 380 0 314 -2 363 -16 376 -16 17 -61 21 -80 8z"/>
<path d="M24 1259 c-17 -19 -19 -41 -22 -208 -4 -209 4 -257 43 -267 14 -3 36
-3 50 0 39 10 47 58 43 267 -3 167 -5 189 -22 208 -11 12 -31 21 -46 21 -15 0
-35 -9 -46 -21z"/>
<path d="M2234 1129 c-17 -19 -19 -39 -19 -225 0 -226 3 -237 65 -237 62 0 65
11 65 239 0 204 0 206 -24 225 -30 25 -63 24 -87 -2z"/>
</g>
</svg>
